<svg class="svg-icon" style="width: 1em; height: 1em;vertical-align: middle;fill: currentColor;overflow: hidden;" viewBox="0 0 1024 1024" version="1.1" xmlns="http://www.w3.org/2000/svg"><path d="M768 432.384V360C768 214.432 649.568 96 504 96S240 214.432 240 360v72.384c-48 4.096-96 48.96-96 103.584v288C144 881.312 189.696 928 247.04 928h512.016C816.4 928 864 881.312 864 823.968v-288c0-54.64-48-99.472-96-103.584z m16 391.584c0 13.008-11.936 24.032-24.944 24.032h-512C234.032 848 224 836.96 224 823.968v-288c0-13.008 10.048-23.968 23.04-23.968H320v-152C320 258.544 402.528 176 504 176S688 258.544 688 360V432H384v80h375.056c13.008 0 24.944 10.96 24.944 23.968v288z m-280-232c-68.528 0-100.48 91.104-40 130.976 0.4 0.288 0.752 0.624 1.152 0.896V784h77.696v-60.16c0.4-0.272 0.752-0.608 1.152-0.896 60.48-39.904 28.528-130.976-40-130.976z" fill="#565D64" /></svg>